<svg xmlns="http://www.w3.org/2000/svg" xmlns:xlink="http://www.w3.org/1999/xlink" contentStyleType="text/css" data-diagram-type="DESCRIPTION" height="503px" preserveAspectRatio="none" style="width:688px;height:503px;background:#FFFFFF;" version="1.1" viewBox="0 0 688 503" width="688px" zoomAndPan="magnify"><defs/><g><!--cluster External Network--><g class="cluster" data-entity="External Network" data-source-line="5" data-uid="ent0002" id="cluster_External Network"><path d="M8.5,6 L8.5,6.5605 L18.3888,4.8951 L28.2776,6.5154 L38.1664,7.0658 L48.0552,4.0976 L57.9441,5.7928 L67.8329,4.8627 L77.7217,4.9773 L87.6105,5.8182 L97.4993,4.1563 L107.3881,7.4764 L117.2769,4.3193 L127.1657,5.4726 L137.0545,7.1519 L146.9434,6 L149.4434,8.5 L149.3715,8.4746 L150.9005,12.4796 L152.2166,16.4093 L153.793,20.431 L155.2438,24.4084 L156.4434,28.2969 L156.4434,29.8587 L166.5097,30.0864 L176.576,30.1082 L186.6424,28.9759 L196.7087,29.5331 L206.7751,30.1695 L216.8414,26.3737 L226.9078,30.1062 L236.9741,27.5062 L247.0404,29.7204 L257.1068,26.9768 L267.1731,28.1142 L277.2395,30.2745 L287.3058,28.1669 L297.3722,28.5777 L307.4385,29.1999 L317.5049,29.4068 L327.5712,28.2865 L337.6375,29.0628 L347.7039,26.7704 L357.7702,29.0552 L367.8366,29.7587 L377.9029,29.4823 L387.9693,29.9316 L398.0356,27.0087 L408.1019,26.5577 L418.1683,26.6398 L428.2346,28.1399 L438.301,27.7728 L448.3673,30.114 L458.4337,27.8311 L468.5,28.2969 L471,30.7969 L470.0852,30.7969 L471.6087,40.9707 L469.2218,51.1446 L469.6157,61.3184 L472.7305,71.4923 L472.1618,81.6661 L472.9586,91.84 L470.1419,102.0138 L471.8512,112.1877 L472.5745,122.3615 L469.7403,132.5354 L470.7444,142.7092 L471.336,152.8831 L472.738,163.0569 L470.9888,173.2308 L472.2335,183.4046 L469.5232,193.5785 L469.194,203.7523 L472.343,213.9262 L471,224.1 L468.5,226.6 L468.5,224.6882 L458.5,227.9572 L448.5,227.151 L438.5,225.8856 L428.5,225.6566 L418.5,227.8234 L408.5,225.8018 L398.5,228.1783 L388.5,225.126 L378.5,228.2465 L368.5,227.8915 L358.5,227.2532 L348.5,226.7259 L338.5,228.5376 L328.5,228.2362 L318.5,227.0513 L308.5,227.3152 L298.5,226.2526 L288.5,228.5105 L278.5,227.013 L268.5,227.0602 L258.5,224.9777 L248.5,225.5194 L238.5,228.0153 L228.5,227.746 L218.5,226.4855 L208.5,225.7409 L198.5,226.0162 L188.5,224.7702 L178.5,227.706 L168.5,228.5722 L158.5,228.0037 L148.5,228.4532 L138.5,226.2354 L128.5,226.8326 L118.5,225.5664 L108.5,227.3574 L98.5,227.258 L88.5,228.073 L78.5,225.9876 L68.5,226.2416 L58.5,227.7826 L48.5,228.1129 L38.5,225.2332 L28.5,226.083 L18.5,226.998 L8.5,226.6 L6,224.1 L4.3711,224.1 L6.9424,214.3 L6.688,204.5 L5.7313,194.7 L6.3793,184.9 L7.9431,175.1 L5.1657,165.3 L6.84,155.5 L6.7617,145.7 L6.3087,135.9 L6.3758,126.1 L6.3026,116.3 L4.3356,106.5 L4.9312,96.7 L4.7692,86.9 L6.1702,77.1 L6.235,67.3 L6.4313,57.5 L5.2241,47.7 L5.82,37.9 L5.6794,28.1 L7.5383,18.3 L6,8.5 L8.5,6" fill="none" style="stroke:#000000;stroke-width:1.5;"/><path d="M6,28.2969 L6,28.5771 L16.0296,27.7444 L26.0591,28.5546 L36.0887,28.8298 L46.1182,27.3457 L56.1478,28.1933 L66.1773,27.7282 L76.2069,27.7855 L86.2365,28.206 L96.266,27.375 L106.2956,29.0351 L116.3251,27.4565 L126.3547,28.0332 L136.3842,28.8728 L146.4138,28.1825 L156.4434,28.2969" fill="none" style="stroke:#000000;stroke-width:1.5;"/><text fill="#000000" font-family="sans-serif" font-size="14" font-weight="bold" lengthAdjust="spacing" textLength="137.4434" x="10" y="20.9951">External Network</text></g><!--cluster Internal Network (Microservices)--><g class="cluster" data-entity="Internal Network .Microservices." data-source-line="13" data-uid="ent0008" id="cluster_Internal Network .Microservices."><path d="M15.5,275.6 L15.5,276.1605 L25.5397,274.4951 L35.5794,276.1154 L45.6191,276.6658 L55.6588,273.6976 L65.6985,275.3928 L75.7382,274.4627 L85.7779,274.5773 L95.8176,275.4182 L105.8573,273.7563 L115.897,277.0764 L125.9367,273.9193 L135.9764,275.0726 L146.0161,276.7519 L156.0558,275.3713 L166.0955,275.782 L176.1352,275.5148 L186.1749,276.0761 L196.2146,276.2377 L206.2543,277.1618 L216.294,277.3895 L226.3337,277.4114 L236.3734,276.279 L246.4131,276.8362 L256.4528,277.4726 L266.4925,273.6768 L276.5322,275.6 L279.0322,278.1 L279.6008,278.3011 L280.1837,281.9715 L282.2796,286.1769 L282.8174,289.8314 L284.5748,293.9172 L286.0322,297.8969 L286.0322,299.8745 L296.0118,297.7669 L305.9913,298.1777 L315.9708,298.7999 L325.9503,299.0068 L335.9299,297.8865 L345.9094,298.6628 L355.8889,296.3704 L365.8685,298.6552 L375.848,299.3587 L385.8275,299.0823 L395.8071,299.5316 L405.7866,296.6087 L415.7661,296.1577 L425.7456,296.2398 L435.7252,297.7399 L445.7047,297.3728 L455.6842,299.714 L465.6638,297.4311 L475.6433,296.9821 L485.6228,298.5056 L495.6024,296.1186 L505.5819,296.5125 L515.5614,299.6274 L525.5409,299.0587 L535.5205,299.8555 L545.5,297.8969 L548,300.3969 L547.1419,300.3969 L548.8512,310.5702 L549.5745,320.7435 L546.7403,330.9168 L547.7444,341.0902 L548.336,351.2635 L549.738,361.4368 L547.9888,371.6101 L549.2335,381.7835 L546.5232,391.9568 L546.194,402.1301 L549.343,412.3034 L546.0882,422.4767 L549.3572,432.6501 L548.551,442.8234 L547.2856,452.9967 L547.0566,463.17 L549.2234,473.3434 L547.2018,483.5167 L548,493.69 L545.5,496.19 L545.5,497.7683 L535.5,494.716 L525.5,497.8365 L515.5,497.4815 L505.5,496.8432 L495.5,496.3159 L485.5,498.1276 L475.5,497.8262 L465.5,496.6413 L455.5,496.9052 L445.5,495.8426 L435.5,498.1005 L425.5,496.603 L415.5,496.6502 L405.5,494.5677 L395.5,495.1094 L385.5,497.6053 L375.5,497.336 L365.5,496.0755 L355.5,495.3309 L345.5,495.6062 L335.5,494.3602 L325.5,497.296 L315.5,498.1622 L305.5,497.5937 L295.5,498.0432 L285.5,495.8254 L275.5,496.4226 L265.5,495.1564 L255.5,496.9474 L245.5,496.848 L235.5,497.663 L225.5,495.5776 L215.5,495.8316 L205.5,497.3726 L195.5,497.7029 L185.5,494.8232 L175.5,495.673 L165.5,496.588 L155.5,494.5611 L145.5,497.1324 L135.5,496.878 L125.5,495.9213 L115.5,496.5693 L105.5,498.1331 L95.5,495.3557 L85.5,497.03 L75.5,496.9517 L65.5,496.4987 L55.5,496.5658 L45.5,496.4926 L35.5,494.5256 L25.5,495.1212 L15.5,496.19 L13,493.69 L11.7692,493.69 L13.1702,483.8905 L13.235,474.0909 L13.4313,464.2914 L12.2241,454.4918 L12.82,444.6923 L12.6794,434.8927 L14.5383,425.0932 L14.1375,415.2936 L11.7052,405.4941 L12.8055,395.6945 L11.4607,385.895 L13.769,376.0955 L14.6226,366.2959 L14.4522,356.4964 L11.8385,346.6968 L14.2372,336.8973 L11.0192,327.0977 L13.5337,317.2982 L12.2018,307.4986 L13.2579,297.6991 L13.6409,287.8995 L13,278.1 L15.5,275.6" fill="none" style="stroke:#000000;stroke-width:1.5;"/><path d="M13,297.8969 L13,298.1771 L23.1123,297.3444 L33.2246,298.1546 L43.3369,298.4298 L53.4492,296.9457 L63.5615,297.7933 L73.6738,297.3282 L83.7861,297.3855 L93.8984,297.806 L104.0107,296.975 L114.123,298.6351 L124.2354,297.0565 L134.3477,297.6332 L144.46,298.4728 L154.5723,297.7825 L164.6846,297.9879 L174.7969,297.8543 L184.9092,298.1349 L195.0215,298.2157 L205.1338,298.6778 L215.2461,298.7916 L225.3584,298.8026 L235.4707,298.2364 L245.583,298.515 L255.6953,298.8332 L265.8076,296.9353 L275.9199,298.8016 L286.0322,297.8969" fill="none" style="stroke:#000000;stroke-width:1.5;"/><text fill="#000000" font-family="sans-serif" font-size="14" font-weight="bold" lengthAdjust="spacing" textLength="260.0322" x="17" y="290.5951">Internal Network (Microservices)</text></g><!--entity Browser--><g class="entity" data-entity="Browser" data-source-line="6" data-uid="ent0003" id="entity_Browser"><polygon fill="#F1F1F1" points="24.41,41,24.41,41.2102,34.3724,40.5857,44.3349,41.1933,54.2973,41.3997,64.2598,40.2866,74.2222,40.9223,84.1847,40.5735,94.1471,40.6165,104.1096,40.9318,114.072,40.3086,124.0345,41.5536,133.9969,40.3697,143.9594,40.8022,153.9218,41.4319,163.8843,40.9142,173.8467,41.0682,183.8091,40.9681,193.7716,41.1785,203.734,41.2391,213.6965,41.5857,223.6589,41.6711,233.6214,41.6793,243.5838,41,243.6163,41.0784,243.9965,41.2892,244.3805,41.5092,244.5525,41.2172,245.0846,41.7947,245.3516,41.7322,245.2603,41.6944,245.6624,42.1539,245.492,42.3762,245.7698,42.7842,246.1658,43.241,246.0838,43.5,246.0676,43.5,246.1189,51.7594,246.1967,60.0188,246.2226,68.2781,246.0825,76.5375,246.0838,84.7969,246.1723,84.8335,245.7611,85.0774,245.8785,85.5403,245.8133,85.9275,245.6349,86.2678,245.3516,86.5646,245.4298,86.7534,244.9364,86.5623,244.5613,86.6567,244.2117,86.8126,243.9299,87.1323,243.5838,87.2969,243.5838,87.1003,233.6214,87.9783,223.6589,87.1222,213.6965,86.9538,203.734,87.5251,193.7716,86.63,183.8091,86.7777,173.8467,87.9458,163.8843,87.7325,153.9218,88.0314,143.9594,86.9751,133.9969,87.6161,124.0345,87.8873,114.072,86.8245,104.1096,87.201,94.1471,87.4229,84.1847,87.9486,74.2222,87.2927,64.2598,87.7594,54.2973,86.7431,44.3349,86.6196,34.3724,87.8005,24.41,87.2969,24.3185,87.0761,24.1214,87.3072,23.7293,87.0676,23.3152,86.775,22.9507,86.6021,22.6422,86.5646,22.7835,86.6232,22.4036,86.1729,22.5316,85.933,22.0327,85.4335,22.2466,85.2292,21.91,84.7969,22.0714,84.7969,21.9917,76.5375,21.9257,68.2781,22.1522,60.0188,22.1145,51.7594,21.91,43.5,21.9621,43.5216,22.139,43.1807,22.1628,42.7763,22.57,42.5307,22.5435,42.1055,22.6422,41.7322,22.6642,41.7854,22.9182,41.3984,23.2976,41.3145,23.7706,41.4563,24.1113,41.2788,24.41,41" style="stroke:#181818;stroke-width:0.5;"/><polygon fill="#F1F1F1" points="226.0838,46,226.0838,46.0701,229.0838,45.8619,232.0838,46.0644,235.0838,46.1332,238.0838,45.7622,241.0838,46,241.0579,46,240.9417,48,240.956,50,241.0611,52,240.8534,54,241.0838,56,241.0838,56.1845,238.0838,55.7899,235.0838,55.9341,232.0838,56.144,229.0838,55.9714,226.0838,56,226.1066,56,226.0732,54,226.1433,52,226.1635,50,226.2791,48,226.0838,46" style="stroke:#181818;stroke-width:0.5;"/><polygon fill="#F1F1F1" points="224.0838,48,224.0838,48.0701,224.8838,47.8619,225.6838,48.0644,226.4838,48.1332,227.2838,47.7622,228.0838,48,228.0579,48,227.9417,48.4,227.956,48.8,228.0611,49.2,227.8534,49.6,228.0838,50,228.0838,50.1845,227.2838,49.7899,226.4838,49.9341,225.6838,50.144,224.8838,49.9714,224.0838,50,224.1066,50,224.0732,49.6,224.1433,49.2,224.1635,48.8,224.2791,48.4,224.0838,48" style="stroke:#181818;stroke-width:0.5;"/><polygon fill="#F1F1F1" points="224.0838,52,224.0838,52.0701,224.8838,51.8619,225.6838,52.0644,226.4838,52.1332,227.2838,51.7622,228.0838,52,228.0579,52,227.9417,52.4,227.956,52.8,228.0611,53.2,227.8534,53.6,228.0838,54,228.0838,54.1845,227.2838,53.7899,226.4838,53.9341,225.6838,54.144,224.8838,53.9714,224.0838,54,224.1066,54,224.0732,53.6,224.1433,53.2,224.1635,52.8,224.2791,52.4,224.0838,52" style="stroke:#181818;stroke-width:0.5;"/><text fill="#000000" font-family="sans-serif" font-size="14" lengthAdjust="spacing" textLength="184.1738" x="36.91" y="73.9951">Web Browser / Mobile App</text></g><!--entity ThirdParty--><g class="entity" data-entity="ThirdParty" data-source-line="7" data-uid="ent0004" id="entity_ThirdParty"><polygon fill="#F1F1F1" points="283.62,41,283.62,41.2102,293.5466,40.5857,303.4732,41.1933,313.3998,41.3997,323.3263,40.2866,333.2529,40.9223,343.1795,40.5735,353.1061,40.6165,363.0327,40.9318,372.9593,40.3086,382.8859,41.5536,392.8124,40.3697,402.739,40.8022,412.6656,41.4319,422.5922,40.9142,432.5188,41.0682,442.4454,40.9681,452.372,41,452.3947,41.055,452.756,41.2201,453.1538,41.4733,453.5182,41.646,453.8728,41.795,454.1397,41.7322,454.2181,41.7647,454.4289,42.1449,454.6489,42.5289,454.357,42.7009,454.9345,43.233,454.872,43.5,454.7731,43.5,455.0499,51.7594,454.7069,60.0188,454.8491,68.2781,455.1192,76.5375,454.872,84.7969,454.8569,84.7907,454.7579,85.1639,454.6833,85.5472,454.5608,85.9106,454.285,86.2106,454.1397,86.5646,454.1764,86.6531,453.7131,86.5348,453.4689,86.9451,453.149,87.1728,452.7822,87.2873,452.372,87.2969,452.372,87.9099,442.4454,86.8138,432.5188,86.6447,422.5922,86.6755,412.6656,87.238,402.739,87.1003,392.8124,87.9783,382.8859,87.1222,372.9593,86.9538,363.0327,87.5251,353.1061,86.63,343.1795,86.7777,333.2529,87.9458,323.3263,87.7325,313.3998,88.0314,303.4732,86.9751,293.5466,87.6161,283.62,87.2969,283.6953,87.4787,283.2062,87.0049,282.9007,86.9745,282.5754,86.8963,282.2889,86.9118,281.8522,86.5646,281.8509,86.5641,281.8482,86.2701,281.3888,85.7869,281.2043,85.4176,281.4215,85.2147,281.12,84.7969,280.881,84.7969,281.2897,76.5375,281.1889,68.2781,281.0307,60.0188,281.0021,51.7594,281.12,43.5,281.2613,43.5585,281.1743,43.1083,281.5952,42.8684,281.3891,42.3688,281.8959,42.1645,281.8522,41.7322,281.914,41.8814,282.237,41.6612,282.5654,41.4539,283.0056,41.5167,283.3447,41.3354,283.62,41" style="stroke:#181818;stroke-width:0.5;"/><polygon fill="#F1F1F1" points="434.872,46,434.872,46.0701,437.872,45.8619,440.872,46.0644,443.872,46.1332,446.872,45.7622,449.872,46,449.846,46,449.7298,48,449.7441,50,449.8492,52,449.6415,54,449.872,56,449.872,56.1845,446.872,55.7899,443.872,55.9341,440.872,56.144,437.872,55.9714,434.872,56,434.8947,56,434.8613,54,434.9315,52,434.9517,50,435.0672,48,434.872,46" style="stroke:#181818;stroke-width:0.5;"/><polygon fill="#F1F1F1" points="432.872,48,432.872,48.0701,433.672,47.8619,434.472,48.0644,435.272,48.1332,436.072,47.7622,436.872,48,436.846,48,436.7298,48.4,436.7441,48.8,436.8492,49.2,436.6415,49.6,436.872,50,436.872,50.1845,436.072,49.7899,435.272,49.9341,434.472,50.144,433.672,49.9714,432.872,50,432.8947,50,432.8613,49.6,432.9315,49.2,432.9517,48.8,433.0672,48.4,432.872,48" style="stroke:#181818;stroke-width:0.5;"/><polygon fill="#F1F1F1" points="432.872,52,432.872,52.0701,433.672,51.8619,434.472,52.0644,435.272,52.1332,436.072,51.7622,436.872,52,436.846,52,436.7298,52.4,436.7441,52.8,436.8492,53.2,436.6415,53.6,436.872,54,436.872,54.1845,436.072,53.7899,435.272,53.9341,434.472,54.144,433.672,53.9714,432.872,54,432.8947,54,432.8613,53.6,432.9315,53.2,432.9517,52.8,433.0672,52.4,432.872,52" style="stroke:#181818;stroke-width:0.5;"/><text fill="#000000" font-family="sans-serif" font-size="14" lengthAdjust="spacing" textLength="133.752" x="296.12" y="73.9951">Third-Party Service</text></g><!--entity API Gateway (e.g. KONG)--><g class="entity" data-entity="API Gateway .e.g. KONG." data-source-line="9" data-uid="ent0005" id="entity_API Gateway .e.g. KONG."><polygon fill="#F1F1F1" points="37.41,164.3,37.41,164.5102,47.4666,163.8857,57.5233,164.4933,67.5799,164.6997,77.6366,163.5866,87.6932,164.2223,97.7498,163.8735,107.8065,163.9165,117.8631,164.2318,127.9198,163.6086,137.9764,164.8536,148.033,163.6697,158.0897,164.1022,168.1463,164.7319,178.203,164.2142,188.2596,164.3682,198.3163,164.2681,208.3729,164.4785,218.4295,164.5391,228.4862,164.8857,238.5428,164.9711,248.5995,164.3,248.6861,164.5092,248.9855,164.5249,249.3657,164.7357,249.7497,164.9556,249.9217,164.6637,250.3672,165.0322,250.5762,165.1188,250.4224,165.348,250.8245,165.8074,250.6541,166.0297,250.9319,166.4377,251.0995,166.8,251.3467,166.8,251.0832,175.0594,251.1346,183.3188,251.2123,191.5781,251.2382,199.8375,251.0995,208.0969,251.0983,208.0964,251.0415,208.4871,250.6303,208.731,250.7477,209.1938,250.6825,209.581,250.3672,209.8646,250.4239,210.0015,250.0919,210.1999,249.5985,210.0088,249.2234,210.1031,248.8737,210.2591,248.5995,210.5969,248.5995,210.538,238.5428,210.4003,228.4862,211.2783,218.4295,210.4222,208.3729,210.2538,198.3163,210.8251,188.2596,209.93,178.203,210.0777,168.1463,211.2458,158.0897,211.0325,148.033,211.3314,137.9764,210.2751,127.9198,210.9161,117.8631,211.1873,107.8065,210.1245,97.7498,210.501,87.6932,210.7229,77.6366,211.2486,67.5799,210.5927,57.5233,211.0594,47.4666,210.0431,37.41,210.5969,37.3236,210.3883,37.1207,210.6055,36.6114,210.0832,36.4143,210.3143,36.0221,210.0747,35.6422,209.8646,35.5597,209.8305,35.3868,209.466,35.4906,209.2161,35.1107,208.7658,35.2387,208.5259,34.91,208.0969,34.7258,208.0969,35.1158,199.8375,35.0714,191.5781,34.9917,183.3188,34.9257,175.0594,34.91,166.8,35.1338,166.8927,35.2454,166.5247,35.255,166.1145,35.4319,165.7736,35.4557,165.3692,35.6422,165.0322,35.7336,165.2529,36.0155,164.9335,36.3714,164.7925,36.6253,164.4055,37.0048,164.3217,37.41,164.3" style="stroke:#181818;stroke-width:0.5;"/><polygon fill="#F1F1F1" points="231.0995,169.3,231.0995,169.3701,234.0995,169.1619,237.0995,169.3644,240.0995,169.4332,243.0995,169.0622,246.0995,169.3,246.0735,169.3,245.9573,171.3,245.9716,173.3,246.0767,175.3,245.869,177.3,246.0995,179.3,246.0995,179.4845,243.0995,179.0899,240.0995,179.2341,237.0995,179.444,234.0995,179.2714,231.0995,179.3,231.1222,179.3,231.0888,177.3,231.159,175.3,231.1792,173.3,231.2947,171.3,231.0995,169.3" style="stroke:#181818;stroke-width:0.5;"/><polygon fill="#F1F1F1" points="229.0995,171.3,229.0995,171.3701,229.8995,171.1619,230.6995,171.3644,231.4995,171.4332,232.2995,171.0622,233.0995,171.3,233.0735,171.3,232.9573,171.7,232.9716,172.1,233.0767,172.5,232.869,172.9,233.0995,173.3,233.0995,173.4845,232.2995,173.0899,231.4995,173.2341,230.6995,173.444,229.8995,173.2714,229.0995,173.3,229.1222,173.3,229.0888,172.9,229.159,172.5,229.1792,172.1,229.2947,171.7,229.0995,171.3" style="stroke:#181818;stroke-width:0.5;"/><polygon fill="#F1F1F1" points="229.0995,175.3,229.0995,175.3701,229.8995,175.1619,230.6995,175.3644,231.4995,175.4332,232.2995,175.0622,233.0995,175.3,233.0735,175.3,232.9573,175.7,232.9716,176.1,233.0767,176.5,232.869,176.9,233.0995,177.3,233.0995,177.4845,232.2995,177.0899,231.4995,177.2341,230.6995,177.444,229.8995,177.2714,229.0995,177.3,229.1222,177.3,229.0888,176.9,229.159,176.5,229.1792,176.1,229.2947,175.7,229.0995,175.3" style="stroke:#181818;stroke-width:0.5;"/><text fill="#000000" font-family="sans-serif" font-size="14" lengthAdjust="spacing" textLength="176.1895" x="49.91" y="197.2951">API Gateway (e.g. KONG)</text></g><!--entity Service A - RESTful Adapter--><g class="entity" data-entity="Service A - RESTful Adapter" data-source-line="14" data-uid="ent0009" id="entity_Service A - RESTful Adapter"><polygon fill="#F1F1F1" points="31.67,310.6,31.67,310.8102,41.6118,310.1857,51.5537,310.7933,61.4955,310.9997,71.4373,309.8866,81.3792,310.5223,91.321,310.1735,101.2628,310.2165,111.2046,310.5318,121.1465,309.9086,131.0883,311.1536,141.0301,309.9697,150.972,310.4022,160.9138,311.0319,170.8556,310.5142,180.7975,310.6682,190.7393,310.5681,200.6811,310.7785,210.623,310.8391,220.5648,311.1857,230.5066,311.2711,240.4484,311.2793,250.3903,310.8546,260.3321,310.6,260.3912,310.7428,260.7752,310.9627,260.9472,310.6708,261.4793,311.2483,261.7085,311.0945,262.0999,311.3322,262.2643,311.4003,262.0939,311.6226,262.3717,312.0306,262.7676,312.4875,262.6707,312.7402,262.8321,313.1,262.8672,313.1,262.945,321.3594,262.9709,329.6188,262.8308,337.8781,262.9278,346.1375,262.8321,354.3969,262.6558,354.3239,262.7732,354.7867,262.708,355.1739,262.5297,355.5142,262.4351,355.8893,262.0999,356.1646,262.0383,356.0159,261.6631,356.1102,261.3135,356.2662,261.0317,356.5858,260.6606,356.6899,260.3321,356.8969,260.3321,357.5783,250.3903,356.7222,240.4484,356.5538,230.5066,357.1251,220.5648,356.23,210.623,356.3777,200.6811,357.5458,190.7393,357.3325,180.7975,357.6314,170.8556,356.5751,160.9138,357.2161,150.972,357.4873,141.0301,356.4245,131.0883,356.801,121.1465,357.0229,111.2046,357.5486,101.2628,356.8927,91.321,357.3594,81.3792,356.3431,71.4373,356.2196,61.4955,357.4005,51.5537,356.1799,41.6118,357.4058,31.67,356.8969,31.6964,356.9605,31.2823,356.6679,30.9178,356.495,30.6679,356.5988,30.2176,356.2189,29.9022,356.1646,30.0845,356.2401,29.5856,355.7406,29.7995,355.5363,29.612,355.1658,29.3919,354.7817,29.17,354.3969,29.1857,354.3969,29.4122,346.1375,29.3745,337.8781,29.2264,329.6188,29.2594,321.3594,29.17,313.1,29.1299,313.0834,29.5371,312.8378,29.5106,312.4126,29.6625,312.0614,29.5684,311.6082,29.9022,311.3322,29.8505,311.2074,30.3235,311.3492,30.6642,311.1717,30.9574,310.8797,31.2754,310.6472,31.67,310.6" style="stroke:#181818;stroke-width:0.5;"/><polygon fill="#F1F1F1" points="242.8321,315.6,242.8321,315.6701,245.8321,315.4619,248.8321,315.6644,251.8321,315.7332,254.8321,315.3622,257.8321,315.6,257.8062,315.6,257.6899,317.6,257.7043,319.6,257.8094,321.6,257.6017,323.6,257.8321,325.6,257.8321,325.7845,254.8321,325.3899,251.8321,325.5341,248.8321,325.744,245.8321,325.5714,242.8321,325.6,242.8549,325.6,242.8215,323.6,242.8916,321.6,242.9118,319.6,243.0273,317.6,242.8321,315.6" style="stroke:#181818;stroke-width:0.5;"/><polygon fill="#F1F1F1" points="240.8321,317.6,240.8321,317.6701,241.6321,317.4619,242.4321,317.6644,243.2321,317.7332,244.0321,317.3622,244.8321,317.6,244.8062,317.6,244.6899,318,244.7043,318.4,244.8094,318.8,244.6017,319.2,244.8321,319.6,244.8321,319.7845,244.0321,319.3899,243.2321,319.5341,242.4321,319.744,241.6321,319.5714,240.8321,319.6,240.8549,319.6,240.8215,319.2,240.8916,318.8,240.9118,318.4,241.0273,318,240.8321,317.6" style="stroke:#181818;stroke-width:0.5;"/><polygon fill="#F1F1F1" points="240.8321,321.6,240.8321,321.6701,241.6321,321.4619,242.4321,321.6644,243.2321,321.7332,244.0321,321.3622,244.8321,321.6,244.8062,321.6,244.6899,322,244.7043,322.4,244.8094,322.8,244.6017,323.2,244.8321,323.6,244.8321,323.7845,244.0321,323.3899,243.2321,323.5341,242.4321,323.744,241.6321,323.5714,240.8321,323.6,240.8549,323.6,240.8215,323.2,240.8916,322.8,240.9118,322.4,241.0273,322,240.8321,321.6" style="stroke:#181818;stroke-width:0.5;"/><text fill="#000000" font-family="sans-serif" font-size="14" lengthAdjust="spacing" textLength="193.6621" x="44.17" y="343.5951">Service A - RESTful Adapter</text></g><!--entity Service B - RESTful Adapter--><g class="entity" data-entity="Service B - RESTful Adapter" data-source-line="15" data-uid="ent0011" id="entity_Service B - RESTful Adapter"><polygon fill="#F1F1F1" points="300.66,310.6,300.66,310.8102,310.603,310.1857,320.546,310.7933,330.4891,310.9997,340.4321,309.8866,350.3751,310.5223,360.3181,310.1735,370.2611,310.2165,380.2042,310.5318,390.1472,309.9086,400.0902,311.1536,410.0332,309.9697,419.9762,310.4022,429.9193,311.0319,439.8623,310.5142,449.8053,310.6682,459.7483,310.5681,469.6913,310.7785,479.6344,310.8391,489.5774,311.1857,499.5204,311.2711,509.4634,311.2793,519.4064,310.8546,529.3495,310.6,529.4086,310.7428,529.7926,310.9627,529.9646,310.6708,530.4967,311.2483,530.7258,311.0945,531.1172,311.3322,531.2816,311.4003,531.1112,311.6226,531.389,312.0306,531.7849,312.4875,531.688,312.7402,531.8495,313.1,531.8846,313.1,531.9623,321.3594,531.9882,329.6188,531.8482,337.8781,531.9452,346.1375,531.8495,354.3969,531.6732,354.3239,531.7906,354.7867,531.7254,355.1739,531.547,355.5142,531.4525,355.8893,531.1172,356.1646,531.0556,356.0159,530.6805,356.1102,530.3308,356.2662,530.049,356.5858,529.6779,356.6899,529.3495,356.8969,529.3495,357.5783,519.4064,356.7222,509.4634,356.5538,499.5204,357.1251,489.5774,356.23,479.6344,356.3777,469.6913,357.5458,459.7483,357.3325,449.8053,357.6314,439.8623,356.5751,429.9193,357.2161,419.9762,357.4873,410.0332,356.4245,400.0902,356.801,390.1472,357.0229,380.2042,357.5486,370.2611,356.8927,360.3181,357.3594,350.3751,356.3431,340.4321,356.2196,330.4891,357.4005,320.546,356.1799,310.603,357.4058,300.66,356.8969,300.6864,356.9605,300.2723,356.6679,299.9078,356.495,299.6579,356.5988,299.2076,356.2189,298.8922,356.1646,299.0745,356.2401,298.5756,355.7406,298.7895,355.5363,298.602,355.1658,298.3819,354.7817,298.16,354.3969,298.1757,354.3969,298.4022,346.1375,298.3645,337.8781,298.2164,329.6188,298.2494,321.3594,298.16,313.1,298.1199,313.0834,298.5271,312.8378,298.5006,312.4126,298.6525,312.0614,298.5584,311.6082,298.8922,311.3322,298.8405,311.2074,299.3135,311.3492,299.6542,311.1717,299.9474,310.8797,300.2654,310.6472,300.66,310.6" style="stroke:#181818;stroke-width:0.5;"/><polygon fill="#F1F1F1" points="511.8495,315.6,511.8495,315.6701,514.8495,315.4619,517.8495,315.6644,520.8495,315.7332,523.8495,315.3622,526.8495,315.6,526.8235,315.6,526.7073,317.6,526.7216,319.6,526.8267,321.6,526.619,323.6,526.8495,325.6,526.8495,325.7845,523.8495,325.3899,520.8495,325.5341,517.8495,325.744,514.8495,325.5714,511.8495,325.6,511.8722,325.6,511.8388,323.6,511.909,321.6,511.9292,319.6,512.0447,317.6,511.8495,315.6" style="stroke:#181818;stroke-width:0.5;"/><polygon fill="#F1F1F1" points="509.8495,317.6,509.8495,317.6701,510.6495,317.4619,511.4495,317.6644,512.2495,317.7332,513.0495,317.3622,513.8495,317.6,513.8235,317.6,513.7073,318,513.7216,318.4,513.8267,318.8,513.619,319.2,513.8495,319.6,513.8495,319.7845,513.0495,319.3899,512.2495,319.5341,511.4495,319.744,510.6495,319.5714,509.8495,319.6,509.8722,319.6,509.8388,319.2,509.909,318.8,509.9292,318.4,510.0447,318,509.8495,317.6" style="stroke:#181818;stroke-width:0.5;"/><polygon fill="#F1F1F1" points="509.8495,321.6,509.8495,321.6701,510.6495,321.4619,511.4495,321.6644,512.2495,321.7332,513.0495,321.3622,513.8495,321.6,513.8235,321.6,513.7073,322,513.7216,322.4,513.8267,322.8,513.619,323.2,513.8495,323.6,513.8495,323.7845,513.0495,323.3899,512.2495,323.5341,511.4495,323.744,510.6495,323.5714,509.8495,323.6,509.8722,323.6,509.8388,323.2,509.909,322.8,509.9292,322.4,510.0447,322,509.8495,321.6" style="stroke:#181818;stroke-width:0.5;"/><text fill="#000000" font-family="sans-serif" font-size="14" lengthAdjust="spacing" textLength="193.6895" x="313.16" y="343.5951">Service B - RESTful Adapter</text></g><!--entity Microservice 1--><g class="entity" data-entity="Microservice 1" data-source-line="17" data-uid="ent0013" id="entity_Microservice 1"><polygon fill="#F1F1F1" points="34.75,433.89,34.75,434.1002,44.4995,433.4757,54.249,434.0833,63.9985,434.2897,73.748,433.1766,83.4976,433.8123,93.2471,433.4635,102.9966,433.5065,112.7461,433.8218,122.4956,433.1986,132.2451,434.4436,141.9946,433.2597,151.7441,433.6922,161.4937,434.3219,171.2432,433.89,171.2322,433.8636,171.6054,434.0575,171.9462,434.1731,172.3266,434.3843,172.6879,434.5494,173.0109,434.6222,173.1913,434.6969,173.364,435.0614,173.513,435.416,173.5287,435.7154,173.7395,436.0956,173.7432,436.39,173.9772,436.39,173.5028,444.6494,173.9693,452.9088,173.6443,461.1681,173.9211,469.4275,173.7432,477.6869,173.5907,477.6237,173.5756,478.0317,173.6787,478.4886,173.2888,478.7413,173.1898,479.1145,173.0109,479.4546,173.0541,479.5589,172.7105,479.7293,172.3033,479.7463,171.9869,479.9824,171.5237,479.8641,171.2432,480.1869,171.2432,480.4713,161.4937,480.7351,151.7441,480.6314,141.9946,480.7999,132.2451,479.7038,122.4956,479.5347,112.7461,479.5655,102.9966,480.128,93.2471,479.9903,83.4976,480.8683,73.748,480.0122,63.9985,479.8438,54.249,480.4151,44.4995,479.52,34.75,480.1869,34.6838,480.027,34.4792,480.2403,34.0985,480.0281,33.783,479.9737,33.2947,479.502,32.9822,479.4546,33.0805,479.4954,33.0176,479.1764,32.5439,478.6873,32.5134,478.3818,32.4352,478.0565,32.25,477.6869,32.4673,477.6869,32.2486,469.4275,32.4042,461.1681,32.0654,452.9088,32.0242,444.6494,32.25,436.39,32.4051,436.4542,32.1757,435.945,32.6996,435.7478,32.753,435.3557,32.7533,434.9416,32.9822,434.6222,32.9371,434.5133,33.3943,434.6171,33.6512,434.2372,34.1184,434.3652,34.3259,433.8662,34.75,433.89" style="stroke:#181818;stroke-width:0.5;"/><polygon fill="#F1F1F1" points="153.7432,438.89,153.7432,438.9601,156.7432,438.7519,159.7432,438.9544,162.7432,439.0232,165.7432,438.6522,168.7432,438.89,168.7173,438.89,168.601,440.89,168.6153,442.89,168.7204,444.89,168.5127,446.89,168.7432,448.89,168.7432,449.0745,165.7432,448.6799,162.7432,448.8241,159.7432,449.034,156.7432,448.8614,153.7432,448.89,153.7659,448.89,153.7325,446.89,153.8027,444.89,153.8229,442.89,153.9384,440.89,153.7432,438.89" style="stroke:#181818;stroke-width:0.5;"/><polygon fill="#F1F1F1" points="151.7432,440.89,151.7432,440.9601,152.5432,440.7519,153.3432,440.9544,154.1432,441.0232,154.9432,440.6522,155.7432,440.89,155.7173,440.89,155.601,441.29,155.6153,441.69,155.7204,442.09,155.5127,442.49,155.7432,442.89,155.7432,443.0745,154.9432,442.6799,154.1432,442.8241,153.3432,443.034,152.5432,442.8614,151.7432,442.89,151.7659,442.89,151.7325,442.49,151.8027,442.09,151.8229,441.69,151.9384,441.29,151.7432,440.89" style="stroke:#181818;stroke-width:0.5;"/><polygon fill="#F1F1F1" points="151.7432,444.89,151.7432,444.9601,152.5432,444.7519,153.3432,444.9544,154.1432,445.0232,154.9432,444.6522,155.7432,444.89,155.7173,444.89,155.601,445.29,155.6153,445.69,155.7204,446.09,155.5127,446.49,155.7432,446.89,155.7432,447.0745,154.9432,446.6799,154.1432,446.8241,153.3432,447.034,152.5432,446.8614,151.7432,446.89,151.7659,446.89,151.7325,446.49,151.8027,446.09,151.8229,445.69,151.9384,445.29,151.7432,444.89" style="stroke:#181818;stroke-width:0.5;"/><text fill="#000000" font-family="sans-serif" font-size="14" lengthAdjust="spacing" textLength="101.4932" x="47.25" y="466.8851">Microservice 1</text></g><!--entity Microservice 2--><g class="entity" data-entity="Microservice 2" data-source-line="18" data-uid="ent0015" id="entity_Microservice 2"><polygon fill="#F1F1F1" points="212.75,433.89,212.75,434.1002,222.4995,433.4757,232.249,434.0833,241.9985,434.2897,251.748,433.1766,261.4976,433.8123,271.2471,433.4635,280.9966,433.5065,290.7461,433.8218,300.4956,433.1986,310.2451,434.4436,319.9946,433.2597,329.7441,433.6922,339.4937,434.3219,349.2432,433.89,349.2322,433.8636,349.6054,434.0575,349.9462,434.1731,350.3266,434.3843,350.6879,434.5494,351.0109,434.6222,351.1913,434.6969,351.364,435.0614,351.513,435.416,351.5287,435.7154,351.7395,436.0956,351.7432,436.39,351.9772,436.39,351.5028,444.6494,351.9693,452.9088,351.6443,461.1681,351.9211,469.4275,351.7432,477.6869,351.5907,477.6237,351.5756,478.0317,351.6787,478.4886,351.2888,478.7413,351.1898,479.1145,351.0109,479.4546,351.0541,479.5589,350.7105,479.7293,350.3033,479.7463,349.9869,479.9824,349.5237,479.8641,349.2432,480.1869,349.2432,480.4713,339.4937,480.7351,329.7441,480.6314,319.9946,480.7999,310.2451,479.7038,300.4956,479.5347,290.7461,479.5655,280.9966,480.128,271.2471,479.9903,261.4976,480.8683,251.748,480.0122,241.9985,479.8438,232.249,480.4151,222.4995,479.52,212.75,480.1869,212.6838,480.027,212.4792,480.2403,212.0985,480.0281,211.783,479.9737,211.2947,479.502,210.9822,479.4546,211.0805,479.4954,211.0176,479.1764,210.5439,478.6873,210.5134,478.3818,210.4352,478.0565,210.25,477.6869,210.4673,477.6869,210.2486,469.4275,210.4042,461.1681,210.0654,452.9088,210.0242,444.6494,210.25,436.39,210.4051,436.4542,210.1757,435.945,210.6996,435.7478,210.753,435.3557,210.7533,434.9416,210.9822,434.6222,210.9371,434.5133,211.3943,434.6171,211.6512,434.2372,212.1184,434.3652,212.3259,433.8662,212.75,433.89" style="stroke:#181818;stroke-width:0.5;"/><polygon fill="#F1F1F1" points="331.7432,438.89,331.7432,438.9601,334.7432,438.7519,337.7432,438.9544,340.7432,439.0232,343.7432,438.6522,346.7432,438.89,346.7173,438.89,346.601,440.89,346.6153,442.89,346.7204,444.89,346.5127,446.89,346.7432,448.89,346.7432,449.0745,343.7432,448.6799,340.7432,448.8241,337.7432,449.034,334.7432,448.8614,331.7432,448.89,331.7659,448.89,331.7325,446.89,331.8027,444.89,331.8229,442.89,331.9384,440.89,331.7432,438.89" style="stroke:#181818;stroke-width:0.5;"/><polygon fill="#F1F1F1" points="329.7432,440.89,329.7432,440.9601,330.5432,440.7519,331.3432,440.9544,332.1432,441.0232,332.9432,440.6522,333.7432,440.89,333.7173,440.89,333.601,441.29,333.6153,441.69,333.7204,442.09,333.5127,442.49,333.7432,442.89,333.7432,443.0745,332.9432,442.6799,332.1432,442.8241,331.3432,443.034,330.5432,442.8614,329.7432,442.89,329.7659,442.89,329.7325,442.49,329.8027,442.09,329.8229,441.69,329.9384,441.29,329.7432,440.89" style="stroke:#181818;stroke-width:0.5;"/><polygon fill="#F1F1F1" points="329.7432,444.89,329.7432,444.9601,330.5432,444.7519,331.3432,444.9544,332.1432,445.0232,332.9432,444.6522,333.7432,444.89,333.7173,444.89,333.601,445.29,333.6153,445.69,333.7204,446.09,333.5127,446.49,333.7432,446.89,333.7432,447.0745,332.9432,446.6799,332.1432,446.8241,331.3432,447.034,330.5432,446.8614,329.7432,446.89,329.7659,446.89,329.7325,446.49,329.8027,446.09,329.8229,445.69,329.9384,445.29,329.7432,444.89" style="stroke:#181818;stroke-width:0.5;"/><text fill="#000000" font-family="sans-serif" font-size="14" lengthAdjust="spacing" textLength="101.4932" x="225.25" y="466.8851">Microservice 2</text></g><!--entity Microservice N--><g class="entity" data-entity="Microservice N" data-source-line="19" data-uid="ent0017" id="entity_Microservice N"><polygon fill="#F1F1F1" points="389.97,433.89,389.97,434.1002,399.8313,433.4757,409.6927,434.0833,419.554,434.2897,429.4153,433.1766,439.2766,433.8123,449.138,433.4635,458.9993,433.5065,468.8606,433.8218,478.722,433.1986,488.5833,434.4436,498.4446,433.2597,508.3059,433.6922,518.1673,434.3219,528.0286,433.89,528.0177,433.8636,528.3909,434.0575,528.7316,434.1731,529.112,434.3843,529.4733,434.5494,529.7964,434.6222,529.9767,434.6969,530.1495,435.0614,530.2984,435.416,530.3141,435.7154,530.5249,436.0956,530.5286,436.39,530.7627,436.39,530.2882,444.6494,530.7548,452.9088,530.4298,461.1681,530.7065,469.4275,530.5286,477.6869,530.3761,477.6237,530.3611,478.0317,530.4641,478.4886,530.0742,478.7413,529.9752,479.1145,529.7964,479.4546,529.8396,479.5589,529.4959,479.7293,529.0888,479.7463,528.7723,479.9824,528.3091,479.8641,528.0286,480.1869,528.0286,480.4713,518.1673,480.7351,508.3059,480.6314,498.4446,480.7999,488.5833,479.7038,478.722,479.5347,468.8606,479.5655,458.9993,480.128,449.138,479.9903,439.2766,480.8683,429.4153,480.0122,419.554,479.8438,409.6927,480.4151,399.8313,479.52,389.97,480.1869,389.9038,480.027,389.6992,480.2403,389.3185,480.0281,389.003,479.9737,388.5147,479.502,388.2022,479.4546,388.3005,479.4954,388.2376,479.1764,387.7639,478.6873,387.7334,478.3818,387.6552,478.0565,387.47,477.6869,387.6873,477.6869,387.4686,469.4275,387.6242,461.1681,387.2854,452.9088,387.2442,444.6494,387.47,436.39,387.6251,436.4542,387.3957,435.945,387.9196,435.7478,387.973,435.3557,387.9733,434.9416,388.2022,434.6222,388.1571,434.5133,388.6143,434.6171,388.8712,434.2372,389.3384,434.3652,389.5459,433.8662,389.97,433.89" style="stroke:#181818;stroke-width:0.5;"/><polygon fill="#F1F1F1" points="510.5286,438.89,510.5286,438.9601,513.5286,438.7519,516.5286,438.9544,519.5286,439.0232,522.5286,438.6522,525.5286,438.89,525.5027,438.89,525.3864,440.89,525.4008,442.89,525.5059,444.89,525.2981,446.89,525.5286,448.89,525.5286,449.0745,522.5286,448.6799,519.5286,448.8241,516.5286,449.034,513.5286,448.8614,510.5286,448.89,510.5513,448.89,510.5179,446.89,510.5881,444.89,510.6083,442.89,510.7238,440.89,510.5286,438.89" style="stroke:#181818;stroke-width:0.5;"/><polygon fill="#F1F1F1" points="508.5286,440.89,508.5286,440.9601,509.3286,440.7519,510.1286,440.9544,510.9286,441.0232,511.7286,440.6522,512.5286,440.89,512.5027,440.89,512.3864,441.29,512.4008,441.69,512.5059,442.09,512.2981,442.49,512.5286,442.89,512.5286,443.0745,511.7286,442.6799,510.9286,442.8241,510.1286,443.034,509.3286,442.8614,508.5286,442.89,508.5513,442.89,508.5179,442.49,508.5881,442.09,508.6083,441.69,508.7238,441.29,508.5286,440.89" style="stroke:#181818;stroke-width:0.5;"/><polygon fill="#F1F1F1" points="508.5286,444.89,508.5286,444.9601,509.3286,444.7519,510.1286,444.9544,510.9286,445.0232,511.7286,444.6522,512.5286,444.89,512.5027,444.89,512.3864,445.29,512.4008,445.69,512.5059,446.09,512.2981,446.49,512.5286,446.89,512.5286,447.0745,511.7286,446.6799,510.9286,446.8241,510.1286,447.034,509.3286,446.8614,508.5286,446.89,508.5513,446.89,508.5179,446.49,508.5881,446.09,508.6083,445.69,508.7238,445.29,508.5286,444.89" style="stroke:#181818;stroke-width:0.5;"/><text fill="#000000" font-family="sans-serif" font-size="14" lengthAdjust="spacing" textLength="103.0586" x="402.47" y="466.8851">Microservice N</text></g><!--link Browser to API Gateway (e.g. KONG)--><g class="link" data-entity-1="Browser" data-entity-2="API Gateway .e.g. KONG." data-source-line="9" data-uid="lnk6" id="link_Browser_API Gateway .e.g. KONG."><path d="M135.67,87.68 L135.9495,87.7007 L135.8654,97.6929 L137.4197,107.8067 L138.4404,117.8808 L137.7068,127.8248 L139.2983,137.9413 L139.5809,147.9607 L140.8943,158.0566" fill="none" style="stroke:#181818;stroke-width:1;"/><polygon fill="#181818" points="141.34,164.04,141.406,164.0636,141.8741,162.139,142.7288,160.3528,143.4577,158.5216,143.7725,156.542,144.6605,154.7678,144.6408,154.7508,143.8144,155.5322,143.0869,156.3987,142.4281,157.3246,141.5324,158.0462,140.9686,159.0538,141.0891,159.1936,139.9743,158.1563,139.2112,157.5271,138.4909,156.9478,137.5211,156.0787,136.6826,155.362,136.7026,155.3727,137.6047,157.0925,138.598,158.8613,139.5473,160.6065,140.5805,162.3967,141.34,164.04" style="stroke:#181818;stroke-width:1;"/><text fill="#000000" font-family="sans-serif" font-size="13" lengthAdjust="spacing" textLength="74.5659" x="141" y="130.3669">RESTful API</text></g><!--link ThirdParty to API Gateway (e.g. KONG)--><g class="link" data-entity-1="ThirdParty" data-entity-2="API Gateway .e.g. KONG." data-source-line="10" data-uid="lnk7" id="link_ThirdParty_API Gateway .e.g. KONG."><path d="M326.21,87.68 L326.343,87.9267 L316.8826,92.0806 L308.2019,97.6807 L299.2672,102.8098 L289.4978,106.3903 L280.8348,112.0233 L271.5489,116.5009 L262.5109,121.4382 L253.6452,126.6952 L244.1857,130.8507 L235.9082,137.1988 L226.0939,140.6962 L217.3023,146.0907 L208.6355,151.7167 L199.2428,155.996 L190.2318,160.9835" fill="none" style="stroke:#181818;stroke-width:1;"/><polygon fill="#181818" points="184.95,163.83,184.9553,163.8999,186.9036,163.5426,188.883,163.5948,190.8523,163.5137,192.7882,162.9941,194.7704,163.0815,194.7629,163.0567,193.6458,162.6206,192.5661,162.3096,191.5125,162.0856,190.3691,161.5619,189.3515,161.4579,189.5283,161.5109,189.475,160.3139,189.9378,159.2715,190.4636,158.2479,190.623,157.1146,190.9751,156.0391,190.9931,156.053,189.7616,157.5907,188.6121,159.1919,187.4231,160.7624,186.3095,162.3912,184.95,163.83" style="stroke:#181818;stroke-width:1;"/><text fill="#000000" font-family="sans-serif" font-size="13" lengthAdjust="spacing" textLength="74.5659" x="270" y="130.3669">RESTful API</text></g><!--link API Gateway (e.g. KONG) to Service A - RESTful Adapter--><g class="link" data-entity-1="API Gateway .e.g. KONG." data-entity-2="Service A - RESTful Adapter" data-source-line="14" data-uid="lnk10" id="link_API Gateway .e.g. KONG._Service A - RESTful Adapter"><path d="M131.03,210.98 L131.1163,211.0157 L129.5926,213.9718 L128.5749,217.1373 L127.3924,220.2347 L125.668,223.1078 L124.6938,226.2913 L124.6606,226.2817 L123.5728,229.5006 L122.6525,232.7676 L121.8484,236.0681 L120.6435,239.2533 L120,242.6 L120.245,242.6227 L119.4043,245.9945 L119.279,249.4326 L119.2409,252.8788 L118.695,256.278 L118.4162,259.7019 L118.4463,259.7053 L118.7688,262.9217 L119.2286,266.1538 L119.6221,269.3783 L120.1419,272.6172 L120.25,275.8093 L120.5365,275.8922 L121.4149,278.9134 L122.1085,281.8809 L123.0726,284.9269 L124.0494,287.9765 L124.6245,290.9098 L124.3299,290.7834 L126.1093,293.8449 L126.9186,296.4903 L128.4654,299.452 L129.2528,302.0881 L130.6626,304.991" fill="none" style="stroke:#181818;stroke-width:1;"/><polygon fill="#181818" points="133.28,310.39,133.35,310.3923,133.0766,308.4167,133.2137,306.4548,133.2171,304.4884,132.7809,302.5074,132.9532,300.5466,132.9287,300.5381,132.448,301.5688,132.0907,302.6424,131.8191,303.7457,131.252,304.7464,131.0988,305.8908,131.1593,306.0652,129.9611,305.3215,128.9395,305.0868,127.9394,304.9142,126.814,304.3803,125.7545,304.0365,125.7692,304.0538,127.2528,305.299,128.8031,306.6233,130.3212,307.9095,131.9009,309.2685,133.28,310.39" style="stroke:#181818;stroke-width:1;"/><text fill="#000000" font-family="sans-serif" font-size="13" lengthAdjust="spacing" textLength="271.9209" x="121" y="255.6669">RESTful API (or internal gRPC Forwarding)</text></g><!--link API Gateway (e.g. KONG) to Service B - RESTful Adapter--><g class="link" data-entity-1="API Gateway .e.g. KONG." data-entity-2="Service B - RESTful Adapter" data-source-line="15" data-uid="lnk12" id="link_API Gateway .e.g. KONG._Service B - RESTful Adapter"><path d="M251.38,199.63 L251.394,199.7224 L255.8424,200.126 L260.3725,201.0712 L264.8761,201.84 L269.2921,202.029 L273.8293,203.0206 L273.8233,202.9866 L278.2838,203.6158 L282.7742,204.4166 L287.2853,205.3367 L291.7248,205.8458 L296.2647,206.9305 L296.3119,207.172 L298.4159,207.0869 L300.6579,207.707 L302.9166,208.413 L305.0774,208.6186 L307.2898,209.0874 L307.2961,209.1171 L309.4462,209.5326 L311.625,210.0832 L313.7899,210.5687 L315.9813,211.1784 L318.0865,211.3829 L318.154,211.6734 L320.2535,212.1644 L322.3095,212.4679 L324.4292,213.0458 L326.5518,213.6365 L328.5799,213.8199 L328.5007,213.5093 L330.6775,214.6284 L332.5934,214.7247 L334.7076,215.5986 L336.6176,215.6718 L338.695,216.4013 L338.6863,216.3721 L342.5483,217.8386 L346.2069,218.6235 L349.9856,219.8106 L353.7743,221.0315 L357.4904,222.0088 L357.556,222.1818 L360.7662,223.2512 L364.0886,224.6162 L367.2295,225.503 L370.6412,227.1031 L373.8728,228.2289 L373.984,228.4457 L376.6369,229.7759 L379.3451,231.2137 L381.7967,232.1514 L384.4364,233.4557 L387.2426,235.0849 L387.0741,234.8661 L389.1781,236.5672 L391.0923,238.0217 L393.2818,239.8339 L395.0012,241.0355 L397,242.6 L396.8776,242.5091 L399.1958,245.5096 L400.9906,248.1216 L403.1577,251.0098 L405.6889,254.1683 L407.5716,256.8455 L407.7517,256.9167 L409.1095,260.0866 L409.9073,263.035 L411.4066,266.2608 L412.753,269.4262 L413.7433,272.4507 L413.5365,272.4146 L414.2634,275.6664 L414.9225,278.9064 L415.7146,282.1696 L415.9894,285.3425 L416.5532,288.5659 L416.7587,288.5722 L416.4044,291.7134 L416.4468,294.8668 L417.0685,298.0381 L416.6235,301.1765 L417.0392,304.3414" fill="none" style="stroke:#181818;stroke-width:1;"/><polygon fill="#181818" points="416.91,310.34,416.9734,310.3698,417.6236,308.4988,418.6454,306.8027,419.5463,305.0496,420.0491,303.1093,421.1029,301.4282,421.0849,301.4095,420.1875,302.1081,419.3804,302.9011,418.636,303.7596,417.6753,304.3921,417.0177,305.3412,417.1509,305.4688,416.0833,304.3788,415.4049,303.6615,414.7739,302.9896,413.8667,302.0532,413.1047,301.256,413.1257,301.2647,413.8559,303.0687,414.6817,304.9126,415.4614,306.7372,416.329,308.5986,416.91,310.34" style="stroke:#181818;stroke-width:1;"/><text fill="#000000" font-family="sans-serif" font-size="13" lengthAdjust="spacing" textLength="271.9209" x="409" y="255.6669">RESTful API (or internal gRPC Forwarding)</text></g><!--link Service A - RESTful Adapter to Microservice 1--><g class="link" data-entity-1="Service A - RESTful Adapter" data-entity-2="Microservice 1" data-source-line="17" data-uid="lnk14" id="link_Service A - RESTful Adapter_Microservice 1"><path d="M111.64,357.26 L111.7063,357.3258 L108.8206,359.8383 L106.3235,362.7365 L103.6998,365.5092 L100.66,367.8686 L98.1962,370.8 L98.1671,370.7815 L95.9969,373.9165 L93.9738,377.1448 L92.0529,380.4378 L89.7797,383.5075 L88,386.89 L88.2344,386.9649 L87.0482,388.947 L86.5463,391.1478 L86.1279,393.3754 L85.2237,395.4476 L84.575,397.6015 L84.6053,397.6035 L84.4252,399.6339 L84.3828,401.6734 L84.274,403.7085 L84.292,405.7521 L83.8966,407.768 L84.191,407.8156 L84.5172,409.8146 L84.6534,411.7829 L85.0677,413.7962 L85.495,415.8115 L85.5094,417.7602 L85.2058,417.6574 L86.4848,419.8946 L86.7641,421.7933 L87.8034,423.9493 L88.06,425.8404 L88.9582,427.9486" fill="none" style="stroke:#181818;stroke-width:1;"/><polygon fill="#181818" points="91.21,433.51,91.28,433.5123,91.1379,431.5367,91.4063,429.5748,91.5411,427.6085,91.2362,425.6274,91.5399,423.6667,91.516,423.6566,90.9677,424.653,90.5396,425.7003,90.1951,426.7831,89.5626,427.7438,89.3335,428.8755,89.4055,429.0454,88.2098,428.2408,87.2243,427.9322,86.2644,427.6842,85.1553,427.084,84.1247,426.6691,84.1405,426.6854,85.5343,428.0296,87.0001,429.4483,88.4312,430.831,89.9285,432.2823,91.21,433.51" style="stroke:#181818;stroke-width:1;"/><text fill="#000000" font-family="sans-serif" font-size="13" lengthAdjust="spacing" textLength="34.2012" x="89" y="399.9569">gRPC</text></g><!--link Service A - RESTful Adapter to Microservice 2--><g class="link" data-entity-1="Service A - RESTful Adapter" data-entity-2="Microservice 2" data-source-line="18" data-uid="lnk16" id="link_Service A - RESTful Adapter_Microservice 2"><path d="M146.93,357.27 L147.0223,357.2845 L147.1159,359.58 L147.7504,361.9605 L148.2088,364.3134 L148.0879,366.5751 L148.7689,368.963 L148.7355,368.9542 L149.228,371.3742 L149.8889,373.8382 L150.667,376.3328 L151.0415,378.7219 L151.9813,381.2588 L152.2086,381.3529 L152.7133,383.5428 L153.8817,386.0077 L155.1311,388.5061 L155.9094,390.8093 L156.9355,393.2152 L156.9608,393.2319 L158.3365,395.3423 L159.8274,397.5289 L161.2628,399.6787 L162.8042,401.8987 L164,403.89 L164.2176,404.0939 L166.0228,406.0198 L167.6877,407.8141 L169.558,409.8009 L171.4379,411.7968 L173.0127,413.5067 L172.8065,413.2614 L175.0725,415.3056 L176.6595,416.5418 L178.7627,418.3923 L180.3342,419.6102 L182.3415,421.3466 L182.325,421.321 L184.5722,422.9456 L186.4341,423.9723 L188.5233,425.3518 L190.6316,426.761 L192.6022,427.9564 L192.6852,428.1217 L194.9631,429.1402 L197.3828,430.4412 L199.5731,431.2851 L202.1056,432.8108 L204.4106,433.8831" fill="none" style="stroke:#181818;stroke-width:1;"/><polygon fill="#181818" points="209.88,436.35,209.9323,436.3967,208.4651,434.7887,207.3042,433.4543,206.0436,432.0308,204.455,430.3144,203.3204,429.0034,203.2962,428.9943,203.5878,430.0113,204.0016,431.0745,204.5002,432.1699,204.7063,433.1546,205.3221,434.2943,205.3874,434.4669,204.1896,434.4981,203.1825,435.0333,202.1986,435.63,201.0793,435.8689,200.0313,436.296,200.0314,436.3187,202.001,436.2962,203.9711,436.3771,205.941,436.4081,207.9113,436.5344,209.88,436.35" style="stroke:#181818;stroke-width:1;"/><text fill="#000000" font-family="sans-serif" font-size="13" lengthAdjust="spacing" textLength="34.2012" x="165" y="399.9569">gRPC</text></g><!--link Service A - RESTful Adapter to Microservice N--><g class="link" data-entity-1="Service A - RESTful Adapter" data-entity-2="Microservice N" data-source-line="19" data-uid="lnk18" id="link_Service A - RESTful Adapter_Microservice N"><path d="M208.34,357.27 L208.3737,357.3571 L211.7881,358.4596 L215.4002,360.0727 L218.9478,361.5195 L222.2837,362.4195 L225.9128,364.0764 L225.8999,364.0444 L229.4756,365.361 L233.1161,366.8392 L236.8018,368.4297 L240.332,369.6332 L244.08,371.3787 L244.1753,371.6056 L247.6139,372.6511 L251.3308,374.3589 L255.0817,376.1475 L258.635,377.466 L262.2922,379.0317 L262.3045,379.0594 L265.828,380.5904 L269.4075,382.2476 L272.96,383.8438 L276.564,385.5563 L280,386.89 L280.1413,387.1527 L283.3355,388.8731 L286.4386,390.4242 L289.6751,392.2232 L292.9178,394.0339 L295.9625,395.4763 L295.8136,395.1924 L299.3101,397.426 L302.3163,398.7251 L305.6952,400.7346 L308.6903,402.0124 L312,403.89 L311.9881,403.862 L315.7269,405.7275 L319.1867,406.9386 L322.8112,408.5359 L326.4494,410.1656 L329.988,411.5614 L330.0566,411.7332 L333.485,412.9567 L337.0307,414.4738 L340.3867,415.5159 L344.0256,417.2664 L347.4764,418.546 L347.5618,418.7741 L351.0437,420.0416 L354.568,421.4224 L357.8952,422.2769 L361.3668,423.5172 L364.9666,425.0993 L364.8743,424.839 L368.5566,426.3502 L372.1349,427.568 L375.8639,429.2113 L379.3356,430.1282 L382.9602,431.4769" fill="none" style="stroke:#181818;stroke-width:1;"/><polygon fill="#181818" points="388.63,433.44,388.6778,433.4912,387.0965,431.9942,385.7956,430.7973,384.4034,429.5027,382.7109,427.8867,381.434,426.7156,381.4107,426.7042,381.8004,427.6712,382.3075,428.6951,382.8963,429.7588,383.2037,430.6857,383.9052,431.8041,383.9858,431.9701,382.7957,432.1094,381.841,432.7333,380.9149,433.4163,379.8218,433.7553,378.8166,434.2753,378.8186,434.2979,380.7784,434.0976,382.747,434.0005,384.7114,433.8535,386.6839,433.8016,388.63,433.44" style="stroke:#181818;stroke-width:1;"/><text fill="#000000" font-family="sans-serif" font-size="13" lengthAdjust="spacing" textLength="34.2012" x="313" y="399.9569">gRPC</text></g><!--link Service B - RESTful Adapter to Microservice 1--><g class="link" data-entity-1="Service B - RESTful Adapter" data-entity-2="Microservice 1" data-source-line="21" data-uid="lnk19" id="link_Service B - RESTful Adapter_Microservice 1"><path d="M328.07,357.34 L328.0968,357.4295 L323.6565,358.4701 L319.3733,360.0353 L315.039,361.4297 L310.5364,362.2623 L306.2667,363.8725 L306.2562,363.8396 L301.7394,365.1215 L297.2756,366.5692 L292.8487,368.1321 L288.2947,369.2978 L283.9188,371.02 L283.9976,371.2531 L281.5911,371.5113 L279.4147,372.45 L277.2663,373.4718 L274.9546,374.0105 L272.7289,374.8033 L272.739,374.8319 L270.5042,375.5722 L268.3153,376.4428 L266.1042,377.2506 L263.9354,378.1782 L261.6289,378.715 L261.7321,378.9948 L259.5464,379.8046 L257.2942,380.4339 L255.1393,381.3273 L252.9891,382.2332 L250.6942,382.7467 L250.5784,382.4478 L248.6643,383.8566 L246.3689,384.2812 L244.3634,385.4539 L242.0593,385.8562 L240,386.89 L239.9873,386.8623 L237.6125,388.3526 L234.9401,389.1969 L232.4433,390.4223 L229.9612,391.6798 L227.3728,392.7064 L227.4549,392.8722 L223.1225,394.8074 L218.9303,397.026 L214.5112,398.7862 L210.4305,401.2301 L206.1249,403.2194 L206.2349,403.4368 L200.9554,406.0578 L195.7305,408.7867 L190.2517,411.0142 L184.9591,413.6092 L179.8313,416.5299 L179.7054,416.2841 L174.2665,419.3484 L168.6858,422.1357 L163.3108,425.3249 L157.5847,427.8279 L152.0672,430.7388" fill="none" style="stroke:#181818;stroke-width:1;"/><polygon fill="#181818" points="146.73,433.48,146.7339,433.5499,148.6889,433.2314,150.6669,433.3229,152.6375,433.2809,154.5833,432.7997,156.5633,432.9264,156.5554,432.9017,155.4427,432.4449,154.3699,432.1124,153.325,431.8663,152.1843,431.3224,151.1777,431.1957,151.3534,431.2522,151.3238,430.0543,151.8072,429.0213,152.3532,428.0084,152.535,426.8785,152.9084,425.8101,152.9261,425.8244,151.6644,427.3374,150.4834,428.9154,149.2634,430.462,148.1177,432.0685,146.73,433.48" style="stroke:#181818;stroke-width:1;"/><text fill="#000000" font-family="sans-serif" font-size="13" lengthAdjust="spacing" textLength="34.2012" x="241" y="399.9569">gRPC</text></g><!--link Service B - RESTful Adapter to Microservice 2--><g class="link" data-entity-1="Service B - RESTful Adapter" data-entity-2="Microservice 2" data-source-line="22" data-uid="lnk20" id="link_Service B - RESTful Adapter_Microservice 2"><path d="M398.25,357.22 L398.3227,357.2786 L396.2863,359.3619 L394.6761,361.7889 L392.9272,364.1039 L390.7217,366.0508 L389.1481,368.5073 L389.1219,368.4849 L386.9386,370.7943 L384.8875,373.217 L382.9282,375.7185 L380.6523,377.9485 L378.82,380.5588 L379.0004,380.7261 L376.3795,382.7782 L374.2853,385.3188 L372.2554,387.919 L369.8515,390.1725 L367.6444,392.6083 L367.6655,392.6301 L365.3056,394.8544 L363.0418,397.178 L360.7317,399.4536 L358.51,401.8206 L356,403.89 L356.1967,404.1142 L354.5181,405.5919 L352.7126,406.9249 L351.0928,408.4697 L349.4817,410.0243 L347.5949,411.2647 L347.3929,411.0158 L346.1871,412.7956 L344.3162,413.7559 L342.951,415.3393 L341.065,416.281 L339.6058,417.7486 L339.5876,417.7242 L338.1688,419.232 L336.3245,420.1696 L334.7313,421.4437 L333.1591,422.746 L331.4349,423.8445 L331.5404,423.9965 L329.6438,425.0851 L327.9274,426.4335 L325.9195,427.3616 L324.3464,428.9166 L322.4842,430.0548" fill="none" style="stroke:#181818;stroke-width:1;"/><polygon fill="#181818" points="317.51,433.41,317.5222,433.479,319.4255,432.9307,321.4005,432.7868,323.3521,432.5112,325.227,431.8025,327.2081,431.6933,327.2031,431.6679,326.0704,431.3379,324.9625,431.1361,323.872,431.0234,322.7218,430.6036,321.6551,430.614,321.8363,430.6492,321.6648,429.4633,322.0222,428.3802,322.4441,427.3097,322.4905,426.1662,322.7345,425.061,322.7537,425.0731,321.6805,426.7252,320.6951,428.4322,319.6674,430.1127,318.7204,431.8438,317.51,433.41" style="stroke:#181818;stroke-width:1;"/><text fill="#000000" font-family="sans-serif" font-size="13" lengthAdjust="spacing" textLength="34.2012" x="373" y="399.9569">gRPC</text></g><!--link Service B - RESTful Adapter to Microservice N--><g class="link" data-entity-1="Service B - RESTful Adapter" data-entity-2="Microservice N" data-source-line="23" data-uid="lnk21" id="link_Service B - RESTful Adapter_Microservice N"><path d="M423.17,357.28 L423.4334,357.3756 L425.8573,365.9303 L429.8255,375.0454 L433.2909,383.978 L435.1024,392.3106 L439.1058,401.4384 L441.8752,410.1185 L445.1358,418.9768 L448.8231,427.99" fill="none" style="stroke:#181818;stroke-width:1;"/><polygon fill="#181818" points="450.87,433.63,450.9399,433.6349,450.8702,431.6554,451.2101,429.7046,451.4167,427.7445,451.1845,425.7536,451.5597,423.8053,451.5362,423.7943,450.9518,424.77,450.4857,425.801,450.1018,426.8705,449.4345,427.8074,449.1642,428.93,449.2424,429.0971,448.0503,428.2605,447.0865,427.9121,446.1504,427.6231,445.0524,426.9877,444.0396,426.5345,444.056,426.5503,445.398,427.9462,446.8146,429.414,448.1953,430.8471,449.6446,432.3463,450.87,433.63" style="stroke:#181818;stroke-width:1;"/><text fill="#000000" font-family="sans-serif" font-size="13" lengthAdjust="spacing" textLength="34.2012" x="440" y="399.9569">gRPC</text></g><!--SRC=[fP1FJy905CJl_HGZft8eHeyUJAX1GWor0H8FXCFIFjiDxUxcTR4ImtUtBNyrqOYzxfkPtynUQMEbLaY5YakMrfA2vJKvnKeg8rZaoBNIKSewfzqbbJ61ScCtYAc8M3O9ZcD4j189eJDujyHAP0Z8bffN7NmumFo5bl1PbmKnhZ7MIvaH-iOi88h3eTRDKicn5mgk05FYDnbH8sdUcsUdaXsIFEyUytuumb1OAiK6BlMI7fwUWs5tWJjC1jFPwpf39QbSfuoBZDkpTIFrTHtSiOnO5xkcHNU_ziVaXhlVXJwy4oWMfeh-neQh6VB0J2RX0nurbu9ZgPBktqb-MrAD-hLsWpl_2zpKX3he7zxR5jxWw3qt-orA-orA-vUMtdu2]--></g></svg>